<svg xmlns="http://www.w3.org/2000/svg" viewBox="0 0 524.3 347.06"><defs><style>.cls-1{fill:#fff;stroke:#fff;stroke-miterlimit:10;}</style></defs><title>Fichier 2</title><g id="Calque_2" data-name="Calque 2"><g id="Calque_1-2" data-name="Calque 1"><g id="Calque_1-2-2" data-name="Calque 1-2"><path class="cls-1" d="M186.9,75.8,199,100.55l10.08,19.9,10.87,22,13,25.08,18.19,36.8,18.82,38.34,16.93,33L300,302.76,315,332.57l6,12.13H284.11s-30.23-1.51-42-27.05-27.09-54-27.09-54L196,224.74,187,207l-7.95,17.66L174,235.55l-4.94,12-5.81,13.8-8.15,19.1-8,18L141,312.54l-5,13.21s5.12-49.49-8-76.27S97.7,205.71,78.26,195.8s-24.93-13-40.58-26C30.05,163,22,156.8,22,156.8s2.62,2.08,9.43,2c0,0-15-6.9-22.32-31S.83,91.52.5,80.1c0,0,4.77,28.06,31,41.56,0,0-22.45-7.65-25.08-54.69s15-64.72,15-64.72c-2.25,5.1-5.53,14.64-3.52,25.84.74,4.16,3.75,17.16,23.43,32.16C60.58,75,77.5,77.69,93.85,83c17.9,5.81,42.46,17.14,69.38,41.52l23.39-48.14Z"/><path class="cls-1" d="M102.5,341.05C117.89,288.12,96,258.43,96,258.43L81.6,288,65.42,319.89,52.5,345.61A115.39,115.39,0,0,0,102.5,341.05Z"/></g><path class="cls-1" d="M290.75,76.49l-.1,55-.09,59v58.9l.06,66.11-.06,29.26,112.2-.14s38.73.8,69.83-26.91c0,0-48.27,9-93.88-29.66H355.94l.13-48.28V188l-.13-54.16h46.31s30-1.9,49.64,43.17c0,0,26.43-21.83,31.77-63.41,0,0-25.76-33.35-86.05-37.06Z"/><path class="cls-1" d="M499.83,130.05s-11.84,32.13-44.68,56.2c0,0,19,104-72,99.89,0,0,23.22,21.11,73.57,15.83a108.79,108.79,0,0,0,45.94-20S552.05,212.14,499.83,130.05Z"/></g></g></svg>